# xmcd
#
# Track frame offsets:
#	150
#	14440
#	25969
#	39108
#	51555
#	63787
#	79381
#	90635
#	104380
#	123010
#	134149
#	145679
#	155567
#	164592
#	183663
#	194320
#
# Disc length: 2791
#
# Revision: 1
# Processed by: cddbd v1.5.1PL0 Copyright (c) Steve Scherf et al.
# Submitted via: dBpowerAMP V4.0
# Normalized: r0:TRMNUM
#
DISCID=de0ae510
DTITLE=Bobby Bare - Country Legends
DYEAR=2003
DGENRE=Country
TTITLE0=All American boy
TTITLE1=Shame on me
TTITLE2=Detroit City
TTITLE3=500 <iles away from home
TTITLE4=Streets of Baltimore
TTITLE5=(<argie's at) the Lincoln Park In
TTITLE6=Please don't tell me how the story ends
TTITLE7=Marie Laveau
TTITLE8=Tequila Sheila
TTITLE9=He was a friend of mine
TTITLE10=When I'm gone
TTITLE11=To whom it may concern
TTITLE12=Bye bye love (with Herma Jean and Liz Anderson)
TTITLE13=Me and Bobby McGee
TTITLE14=Don't it make you want to go home
TTITLE15=Leaving on a jet plane
EXTD=Series: Country Legends
EXTT0=
EXTT1=
EXTT2=
EXTT3=
EXTT4=
EXTT5=
EXTT6=
EXTT7=
EXTT8=
EXTT9=
EXTT10=
EXTT11=
EXTT12=
EXTT13=
EXTT14=
EXTT15=
PLAYORDER=
